<svg width="48" height="48" viewBox="0 0 48 48" fill="none" xmlns="http://www.w3.org/2000/svg"><path d="M23.7185 28.7675C23.1024 26.165 21.2906 23.9745 18.7959 22.8162C17.5674 22.2458 16.239 21.9563 14.9092 21.9477C14.987 23.7919 15.6676 25.5871 16.8867 27.061C18.6004 29.1328 21.1929 30.3459 23.9392 30.3635C23.9168 29.8305 23.8437 29.2964 23.7185 28.7675ZM23.7185 28.7675C23.2127 26.631 21.9011 24.7722 20.0674 23.5342C20.0984 23.3496 20.1356 23.1654 20.179 22.9818C20.7003 20.7798 22.0775 18.8729 24.0001 17.6365C25.9226 18.8729 27.2998 20.7798 27.8211 22.9818C27.8645 23.1654 27.9017 23.3496 27.9327 23.5342C26.099 24.7722 24.7875 26.631 24.2817 28.7675M23.7185 28.7675C23.8437 29.2962 23.9167 29.8302 23.9391 30.3631C23.9772 30.3635 24.0152 30.3637 24.0533 30.3637C24.8232 30.3637 25.5814 30.2698 26.312 30.0892C26.3161 30.0837 26.3203 30.0782 26.3244 30.0727C25.5928 30.2592 24.833 30.3586 24.061 30.3635M24.2817 28.7675C24.8978 26.165 26.7096 23.9745 29.2042 22.8162C30.4328 22.2458 31.7612 21.9563 33.091 21.9477C33.0132 23.7919 32.3326 25.5871 31.1135 27.061C29.3998 29.1328 26.8073 30.3459 24.061 30.3635M24.2817 28.7675C24.1565 29.2964 24.0834 29.8305 24.061 30.3635" stroke="#0266C1" stroke-linecap="round" stroke-linejoin="round"/><rect x="0.5" y="0.5" width="47" height="47" stroke="#0266C1"/></svg>