<svg width="48" height="48" viewBox="0 0 48 48" fill="none" xmlns="http://www.w3.org/2000/svg"><path d="M21.9545 23.9201L24 25.9603L27.5795 22.3899M23.9999 14.9092C21.8897 15.9883 19.5386 16.562 17.1354 16.562C16.811 16.562 16.4875 16.5516 16.1654 16.5308C15.7496 18.4276 15.7036 20.4013 16.0467 22.3423C16.661 25.817 18.483 28.9648 21.1929 31.2327C22.0617 31.9599 23.004 32.5817 23.9999 33.091C24.9959 32.5817 25.9382 31.9599 26.807 31.2327C29.5168 28.9648 31.3389 25.817 31.9531 22.3423C32.2963 20.4013 32.2503 18.4276 31.8345 16.5308C31.5124 16.5516 31.1889 16.562 30.8644 16.562C28.4612 16.562 26.1102 15.9883 23.9999 14.9092Z" stroke="#0266C1"/><rect x="0.5" y="0.5" width="47" height="47" stroke="#0266C1"/></svg>