<svg width="48" height="48" viewBox="0 0 48 48" fill="none" xmlns="http://www.w3.org/2000/svg">
<path d="M32.8322 26.9484C33.3971 25.0442 32.9322 22.8827 32.4383 21.385C32.4351 21.3271 32.4185 21.2709 32.3899 21.2217C32.222 20.7352 32.0671 20.3356 31.9347 20.0472C32.1784 19.9427 32.3391 19.69 32.3415 19.4078V16.5131C32.3415 16.1293 32.0525 15.8181 31.6959 15.8181H23.7644C23.5862 15.8178 23.4414 15.9731 23.4411 16.165C23.4411 16.1722 23.4413 16.1793 23.4416 16.1865C23.5514 18.2714 23.4094 19.6858 22.9994 20.6831C22.9912 20.693 22.9837 20.7034 22.9768 20.7143C22.9756 20.7317 22.9756 20.7491 22.9768 20.7665C22.8203 21.1295 22.6087 21.4619 22.3505 21.7499L22.3215 21.7707C22.3215 21.7707 22.3215 21.7707 22.3215 21.7951C21.943 22.1836 21.5066 22.5008 21.0302 22.7333C20.2004 23.1297 19.3487 23.4709 18.4801 23.7549L18.3154 23.814C15.2972 24.8913 14.9033 26.8442 14.9098 27.8241C14.909 27.838 14.909 27.8519 14.9098 27.8658V30.347C14.9103 30.4677 14.9689 30.5795 15.0647 30.6423C15.8045 31.1268 16.6029 31.4987 17.4374 31.7474C17.609 31.7993 17.7873 31.6917 17.8355 31.5069C17.8446 31.4721 17.8486 31.436 17.8473 31.3999V31.32H18.3219V31.6675C18.3198 31.8396 18.4352 31.9874 18.593 32.015C18.8739 32.0636 19.1547 32.1018 19.4291 32.1262C19.519 32.1343 19.608 32.1015 19.6745 32.0358C19.7409 31.9695 19.7784 31.8762 19.7777 31.7787V31.3408H20.2523V31.8343C20.2523 32.0262 20.3968 32.1818 20.5751 32.1818C20.8462 32.1818 21.1174 32.1818 21.4079 32.1401C21.5761 32.1255 21.7054 31.9741 21.7049 31.7926V31.3408H22.1795V31.6466C22.1772 31.8385 22.3198 31.9961 22.4981 31.9986C22.5167 31.9988 22.5354 31.9974 22.5539 31.9941C23.1465 31.8964 23.7305 31.7465 24.3003 31.5458L24.352 31.5215C26.6116 30.1315 28.0449 31.2748 28.103 31.3234C28.1593 31.3705 28.2286 31.3961 28.2999 31.3964H28.7002C28.8785 31.3964 29.023 31.2408 29.023 31.0489V30.4616H29.4846V31.042C29.4846 31.2339 29.6292 31.3895 29.8074 31.3895H30.8469C31.0252 31.3895 31.1697 31.2339 31.1697 31.042V30.4616H31.6474V31.042C31.6474 31.2339 31.792 31.3895 31.9703 31.3895H32.7676C32.9459 31.3895 33.0904 31.2339 33.0904 31.042V27.2959C33.0936 27.1282 32.9849 26.982 32.8322 26.9484ZM25.1719 16.5201H31.6797V19.3973H25.1719V16.5201ZM21.1142 23.4492L21.1174 23.47C21.382 23.7013 21.6262 23.9584 21.847 24.238C21.7884 24.3428 21.7582 24.4631 21.7598 24.5855C21.7576 24.952 22.0318 25.2511 22.3723 25.2535C22.7129 25.2559 22.9907 24.9606 22.9929 24.5941C22.995 24.2488 22.7507 23.9595 22.4312 23.9287C22.2271 23.629 21.9944 23.353 21.7372 23.1051C22.0257 22.9284 22.2971 22.7212 22.5475 22.4866C22.8605 22.8028 23.1518 23.143 23.419 23.5048C23.3067 23.8508 23.4763 24.2293 23.7977 24.3503C24.1192 24.4711 24.4708 24.2886 24.5832 23.9426C24.6955 23.5965 24.5259 23.218 24.2045 23.0971C24.1378 23.072 24.0676 23.0594 23.9969 23.06H23.9194C23.6362 22.6762 23.3277 22.3151 22.9962 21.9792C23.15 21.7753 23.2862 21.5566 23.4029 21.3259C23.9026 21.606 24.3857 21.9193 24.8491 22.2642C24.8459 22.6346 25.1223 22.9376 25.4663 22.941C25.8104 22.9445 26.0919 22.647 26.0951 22.2766C26.0983 21.9062 25.8219 21.6032 25.4778 21.5997C25.3796 21.5987 25.2825 21.6228 25.1945 21.67C24.7067 21.3145 24.1989 20.9919 23.6741 20.7039C24.0259 19.6962 24.1776 18.3583 24.1066 16.534H24.5295V19.4112C24.5295 19.7951 24.8185 20.1062 25.1751 20.1062H31.2246C31.3085 20.2904 31.4505 20.6101 31.6055 21.0271H31.4731C29.5121 21.0423 27.9338 22.766 27.948 24.8771C27.956 26.0767 28.4867 27.2026 29.3813 27.918C26.7698 28.6581 22.8412 29.5373 19.5356 29.308C20.1458 26.6843 19.4162 25.0685 18.9417 24.3596C19.6806 24.0987 20.4059 23.7947 21.1142 23.4492ZM18.2928 24.5577C18.6415 24.999 19.5518 26.4828 18.8836 29.2107C17.7204 29.1122 16.5907 28.7448 15.5715 28.1334C15.56 28.054 15.5524 27.974 15.5489 27.8936V27.8693C15.5231 27.1291 15.7814 25.5272 18.2928 24.5577ZM32.2931 30.6945V30.1141C32.2931 29.9222 32.1485 29.7666 31.9703 29.7666H30.8501C30.6718 29.7666 30.5273 29.9222 30.5273 30.1141V30.6945H30.1302V30.1141C30.1302 29.9222 29.9857 29.7666 29.8074 29.7666H28.6937C28.5155 29.7666 28.3709 29.9222 28.3709 30.1141V30.6806C27.9319 30.3852 26.3276 29.5269 24.0517 30.896C23.6469 31.0399 23.2339 31.1559 22.8154 31.2435V31.0037C22.8154 30.8118 22.6708 30.6562 22.4926 30.6562H21.3789C21.2006 30.6562 21.0561 30.8118 21.0561 31.0037V31.4798H20.8914V30.9933C20.8914 30.8014 20.7469 30.6458 20.5686 30.6458H19.4485C19.2702 30.6458 19.1257 30.8014 19.1257 30.9933V31.4068L18.961 31.3825V30.9933C18.961 30.8014 18.8165 30.6458 18.6382 30.6458H17.5181C17.3539 30.6446 17.215 30.7761 17.1953 30.9516C16.6223 30.7485 16.0706 30.4818 15.5489 30.1558V28.9118C16.9564 29.7145 18.777 30.0168 20.7139 30.0168C25.8595 30.0168 31.7475 27.8971 32.4416 27.6434L32.4448 30.6945H32.2931ZM32.1349 27.0284C31.8605 27.1257 31.1858 27.3759 30.2529 27.6434C28.8086 26.891 28.2044 25.0206 28.9034 23.4659C29.3816 22.4024 30.3757 21.7197 31.4731 21.7012C31.6004 21.6993 31.7276 21.7063 31.854 21.7221L31.8573 21.7325C32.3318 23.2059 32.7579 25.3083 32.1349 27.0284Z" fill="#0266C1"/>
<path d="M26.415 16.9406C25.8962 16.9406 25.4756 17.3933 25.4756 17.9518C25.4774 18.5095 25.8969 18.9611 26.415 18.963C26.9338 18.963 27.3543 18.5102 27.3543 17.9518C27.3543 17.3933 26.9338 16.9406 26.415 16.9406ZM26.415 18.268C26.2527 18.268 26.1212 18.1264 26.1212 17.9518C26.1212 17.7771 26.2527 17.6356 26.415 17.6356C26.5772 17.6356 26.7087 17.7771 26.7087 17.9518C26.7087 18.1264 26.5772 18.268 26.415 18.268Z" fill="#0266C1"/>
<rect x="0.5" y="0.5" width="47" height="47" stroke="#0266C1"/>
</svg>
